<?xml version="1.0" encoding="utf-8"?>
<!-- Generator: Adobe Illustrator 16.0.0, SVG Export Plug-In . SVG Version: 6.00 Build 0)  -->
<!DOCTYPE svg PUBLIC "-//W3C//DTD SVG 1.1//EN" "http://www.w3.org/Graphics/SVG/1.1/DTD/svg11.dtd">
<svg version="1.1" id="Capa_2" xmlns="http://www.w3.org/2000/svg" xmlns:xlink="http://www.w3.org/1999/xlink" x="0px" y="0px"
	 width="1388.98px" height="1955.91px" viewBox="0 0 1388.98 1955.91" enable-background="new 0 0 1388.98 1955.91"
	 xml:space="preserve">
<g>
	
		<ellipse transform="matrix(0.9997 -0.0231 0.0231 0.9997 -25.1881 15.9392)" opacity="0.6" cx="678.323" cy="1099.795" rx="141.489" ry="34.703"/>
	<path fill="#BEC3C8" d="M668.727,1083.461c0,0-11.754-49.895,10.789-51.627l-44.242-13.719c0,0-36.661,27.049,11.443,65.768
		L668.727,1083.461z"/>
	<path fill="#ECF1F2" d="M665.739,1083.344c0,0-15.594-47.871,6.949-49.604l-24.965-15.744c0,0-15.086,14.744,7.451,66.004
		L665.739,1083.344z"/>
	<path fill="#BEC3C8" d="M665.235,1026.268c0,0,14.932,8.807,6.244,57.615l40.646-19.859c0,0,18-18.666,0-48L665.235,1026.268z"/>
	<path fill="#ECF1F2" d="M684.625,1020.857c0,0,12.773,1.191,4.086,50l23.414-6.834c0,0,15.5-18.666-2.5-48L684.625,1020.857z"/>
	<path fill="#ECF1F2" d="M597.32,990.689c0,0-59.194-57.622,34.806-68.477l6.667,43.037c0,0-44.667-9.227-18,32.774L597.32,990.689z
		"/>
	<path fill="#BEC3C8" d="M703.459,920.518c0,0,34.721,22.172,75.027-5.161l4.973,32c0,0-34.043,24.677-61.355,23.338
		C694.792,969.357,681.458,966.345,703.459,920.518z"/>
	<path fill="#ECF1F2" d="M701.125,937.857c0,0,39.193,11.688,79.5-15.645l-2.139,28.486c0,0-31.299,21.388-58.611,20.049
		C692.563,969.41,679.125,983.686,701.125,937.857z"/>
	<g>
		<g>
			<path fill="#905AA1" d="M920.625,673.509c-18.668-12.667-20.5-71.485-38.5-84.152c-14.666-10-35.5,3.5-45.5-10.5
				c-11.334-16.666-8.5-26.166-25.168-36.834c-11.332-7.332-30-8.666-38.666-16l5.334,140.668c31.332-24,62.666-4,93.332,10
				c46,21.332,18.5,73.5,67.168,86.166L920.625,673.509z"/>
		</g>
		<g>
			<path fill="#7F4A97" d="M920.625,673.509c-18.668-12.667-20.5-71.485-38.5-84.152c-14.666-10-30.75,0-40.75-14
				c-11.334-16.666-13.25-22.666-29.918-33.334c-11.332-7.332-30-8.666-38.666-16l2.188,57.699c31.332-24,33.732,33.385,64.4,47.385
				c29.5-56.082,61.586,82.113,95.422,112.766L920.625,673.509z"/>
		</g>
		<g>
			<path fill="none" stroke="#FFFFFF" d="M860.283,606.529l-1.141,31.337c-0.068,1.87-1.5,3.056-3.197,2.646l-58.756-14.189
				c-1.697-0.411-3.018-2.26-2.949-4.132l1.141-31.336C795.381,590.854,824.949,583.155,860.283,606.529z"/>
			<path fill="#00B3E8" stroke="#00B3E8" d="M860.283,606.529l-1.141,31.337c-0.068,1.87-1.5,3.056-3.197,2.646l-58.756-14.189
				c-1.697-0.411-3.018-2.26-2.949-4.132l1.141-31.336C795.381,590.854,824.949,583.155,860.283,606.529z"/>
			<path fill="#FFFFFF" d="M826.543,633.41l29.402,7.102c1.697,0.41,3.129-0.775,3.197-2.646l1.141-31.337
				c-11.65-7.707-22.674-12.035-32.217-14.376L826.543,633.41z"/>
			<g>
				<path fill="#FFFFFF" d="M798.102,593.46l-1.07,29.4l8,1.932l1.16-31.869C806.191,592.923,802.412,592.9,798.102,593.46z"/>
				<path fill="#FFFFFF" d="M816.688,593.748l-1.223,33.565l8.428,2.035l1.266-34.763
					C825.158,594.585,821.318,593.625,816.688,593.748z"/>
				<polygon fill="#FFFFFF" points="825.158,594.585 810.25,626.052 798.102,593.46 806.191,592.923 810.855,607.333 
					816.688,593.748 				"/>
			</g>
			<g>
				<path fill="#00B3E8" d="M857.662,607.845l-1.07,29.4l-8.002-1.934l1.16-31.869C849.75,603.443,853.465,605.23,857.662,607.845z"
					/>
				<path fill="#00B3E8" d="M839.379,599.228l-1.223,33.564l-8.428-2.035l1.266-34.762
					C830.994,595.996,834.836,596.89,839.379,599.228z"/>
				<polygon fill="#00B3E8" points="830.994,595.996 843.375,634.053 857.662,607.845 849.75,603.443 844.129,615.369 
					839.379,599.228 				"/>
			</g>
			<polygon fill="#E6007E" points="831.85,617.269 822.541,615.021 822.797,608.017 832.105,610.264 			"/>
			<polygon fill="none" points="836.447,622.109 817.629,617.565 817.977,607.997 836.795,612.541 			"/>
			<text transform="matrix(0.855 0.2065 -0.0364 0.9993 824.2148 611.1226)" opacity="0.81"><tspan x="0" y="0" fill="#FFFFFF" font-family="'Acens'" font-size="2.0961">Michael</tspan><tspan x="-0.859" y="2.515" fill="#FFFFFF" font-family="'Acens'" font-size="2.0961">Martinez</tspan></text>
		</g>
		<polygon fill="#D35516" points="786.385,1094.334 792.752,1093.338 775.232,524.457 768.236,524.696 		"/>
	</g>
	<g>
		<path fill="#2C3E50" d="M778.582,909.969c0,0-13,5-16,11c-13,27,21,52,43,34c18-14,14-47,0-62
			C781.582,866.969,752.582,900.969,778.582,909.969L778.582,909.969L778.582,909.969z"/>
	</g>
	<g>
		<path fill="#2C3E50" d="M620.184,1008.23c0,0,3.68,12.191,1.031,17.723c-12.205,24.529-49.324,14-48.666-11.979
			c0.014-20.848,26.084-36.468,44.766-34.771C649.547,981.949,641.264,1021.957,620.184,1008.23L620.184,1008.23L620.184,1008.23z"
			/>
	</g>
	<path fill="#BEC3C8" d="M718.045,1021.574c0,8.531-6.676,15.449-14.91,15.449h-67.626c-8.233,0-14.908-6.918-14.908-15.449V900.561
		c0-8.532,6.675-15.448,14.908-15.448h67.626c8.234,0,14.91,6.916,14.91,15.448V1021.574z"/>
	<path fill="#ECF1F2" d="M732.754,1015.486c0,8.531-6.676,15.449-14.91,15.449h-67.626c-8.233,0-14.908-6.918-14.908-15.449
		L620.6,893.359c0-8.532,21.384-14.334,29.617-14.334h67.626c8.234,0-12.385,13.135-12.385,21.667L732.754,1015.486z"/>
	<path fill="#BEC3C8" d="M718.045,993.23c0,7.961-7.232,14.416-16.152,14.416c-8.919,0-16.151-6.455-16.151-14.416
		s1.028-66.251,9.948-66.251C704.609,926.979,718.045,985.27,718.045,993.23z"/>
	<path fill="#ECF1F2" d="M721.73,988.064c0.508,7.945-6.295,14.85-15.197,15.42s-16.531-5.408-17.04-13.354
		c-0.51-7.945-3.212-66.181,5.69-66.751C704.086,922.808,721.221,980.121,721.73,988.064z"/>
	<path fill="#BEC3C8" d="M678.044,995.031c0,7.963-7.231,14.416-16.151,14.416s-16.151-6.453-16.151-14.416
		c0-7.961,1.028-66.25,9.948-66.25S678.044,987.07,678.044,995.031z"/>
	<path fill="#ECF1F2" d="M681.73,989.867c0.509,7.945-6.294,14.848-15.196,15.418c-8.902,0.572-16.531-5.406-17.04-13.352
		c-0.51-7.945-3.212-66.182,5.69-66.752C664.085,924.611,681.22,981.922,681.73,989.867z"/>
	<g>
		<ellipse fill="#BEC3C8" cx="660.799" cy="785.335" rx="149.326" ry="149.977"/>
		<path fill="#ECF1F2" d="M804.289,776.335c0,73.993-31.066,133.977-132.326,133.977c-73.082,0-132.326-59.983-132.326-133.977
			c0-73.994,59.244-133.979,132.326-133.979C745.045,642.357,804.289,702.341,804.289,776.335z"/>
		<path fill="#2C3E50" d="M804.289,792.857c0,73.994-53.082,90.5-126.164,90.5c-73.082,0-123.687-16.073-123.687-90.066
			c0-73.994,59.245-133.979,132.326-133.979C759.848,659.312,804.289,718.864,804.289,792.857z"/>
		<path fill="#ECF1F2" d="M576.792,704.691c0,0,107.115-39.666,209.224,0l12.609-17.63
			C798.625,687.061,646.959,575.525,576.792,704.691z"/>
		<path fill="#BEC3C8" d="M546.579,733.397c0,0,9.17-28.079,33.297-47.29l6.25,8.75L582,684.982
			c34.234-18.487,102.342-30.601,216.625,2.079c0,0-157.5-56.037-237.167,3.963C524.458,712.691,546.579,733.397,546.579,733.397z"
			/>
		<path fill="#ECF1F2" d="M712.125,698.343c0,0,28-0.986,61.334,9.681c0,0,40,62.667,16.666,126.667
			C790.125,834.691,800.125,720.663,712.125,698.343z"/>
		<path fill="#ECF1F2" d="M687.708,698.343c58.667,12.764,77.167,46.514,77.167,46.514c-12.75-29.75-61.75-46.514-61.75-46.514
			S689.667,697.205,687.708,698.343z"/>
		<ellipse fill="#BEC3C8" cx="538.47" cy="649.315" rx="3.5" ry="3.375"/>
		
			<ellipse transform="matrix(0.9581 0.2863 -0.2863 0.9581 206.2028 -130.4969)" fill="#BEC3C8" cx="549.411" cy="639.981" rx="3.5" ry="3.375"/>
		<polygon fill="#BEC3C8" points="537.292,649.79 557.792,681.357 562.792,676.857 539.792,649.79 		"/>
		<polygon fill="#BEC3C8" points="548.692,641.255 559.298,677.37 565.377,674.49 551.088,641.97 		"/>
	</g>
	<path fill="#BEC3C8" d="M620.6,965.25c-27.725-49.893-40.612-2.488-40.612-2.488c-7.737-37.584,43.699-39.387,43.699-39.387
		L620.6,965.25z"/>
	<circle fill="#2C3E50" cx="665.235" cy="991.813" r="7.5"/>
	<circle fill="#2C3E50" cx="706.609" cy="990.523" r="7.5"/>
	<path fill="#2C3E50" d="M671.479,1083.883c0,0,3.764-36.41,45.732-37.645c41.969-1.234,47.398,44.018,47.398,44.018
		S714.943,1115.482,671.479,1083.883z"/>
	<path fill="#2C3E50" d="M675.676,1082.844c0,0-12.148-34.529-53.248-25.943c-41.1,8.588-35.827,53.859-35.827,53.859
		S640.78,1123.709,675.676,1082.844z"/>
</g>
</svg>
