<?xml version="1.0" encoding="utf-8"?>
<!-- Generator: Adobe Illustrator 16.0.0, SVG Export Plug-In . SVG Version: 6.00 Build 0)  -->
<!DOCTYPE svg PUBLIC "-//W3C//DTD SVG 1.1//EN" "http://www.w3.org/Graphics/SVG/1.1/DTD/svg11.dtd">
<svg version="1.1" id="Capa_1" xmlns="http://www.w3.org/2000/svg" xmlns:xlink="http://www.w3.org/1999/xlink" x="0px" y="0px"
	 width="2551.18px" height="595.28px" viewBox="0 0 2551.18 595.28" enable-background="new 0 0 2551.18 595.28"
	 xml:space="preserve">
<g>
	<g>
		<path fill="#00B2E7" d="M847.799,259.247c-1.63-1.45-2.758-3.351-3.397-5.708c-0.633-2.349-0.495-4.979,0.409-7.878
			c0-0.181,0.045-0.316,0.134-0.408c0.096-0.087,0.137-0.225,0.137-0.408c2.717-3.26,5.66-5.027,8.831-5.299
			c3.167-0.272,6.29,1.131,9.375,4.213c2.895,3.083,5.612,7.063,8.153,11.957c2.535,4.89,4.89,10.051,7.063,15.484
			c2.173,5.438,4.164,10.784,5.977,16.034c1.813,5.255,3.442,9.784,4.894,13.588c1.809,4.711,3.71,9.331,5.705,13.857
			c1.991,4.529,3.893,9.148,5.708,13.859c0-5.437,0.227-11.728,0.677-18.886c0.451-7.154,1.131-14.581,2.04-22.283
			c0.904-7.696,2.08-15.489,3.535-23.367c1.445-7.88,3.26-15.354,5.433-22.417c2.174-7.067,4.705-13.452,7.607-19.157
			c2.895-5.708,6.252-10.279,10.055-13.722c2.353-1.993,4.89-3.712,7.607-5.167c2.72-1.444,5.344-2.988,7.881-4.619
			c2.174-0.543,3.941-0.718,5.3-0.543c1.358,0.184,3.033,0.728,5.027,1.63c4.708,2.717,8.559,5.165,11.547,7.338
			c2.988,2.175,5.478,4.621,7.476,7.337c1.988,2.717,3.755,6.024,5.296,9.919c1.537,3.896,3.305,8.923,5.299,15.082
			c0.723,2.173,1.403,4.301,2.036,6.384c0.636,2.086,1.224,4.211,1.767,6.384c1.266-6.7,2.806-13.267,4.622-19.701
			c1.805-6.427,4.116-12.403,6.926-17.934c2.81-5.522,6.118-10.416,9.921-14.672c3.804-4.254,8.239-7.561,13.315-9.918
			c1.086-0.542,2.582-0.858,4.484-0.951c1.901-0.091,3.803-0.091,5.705,0c1.901,0.093,3.575,0.227,5.024,0.409
			c1.451,0.179,2.265,0.27,2.448,0.27c4.708,0.364,8.738,2.717,12.091,7.063s6.117,9.377,8.291,15.083
			c2.173,5.705,3.803,11.458,4.89,17.256c1.087,5.797,1.809,10.233,2.173,13.314c1.809,16.847,3.082,33.469,3.803,49.862
			c0.722,16.396,0.994,33.108,0.815,50.134c0,1.27-0.045,3.758-0.138,7.473c-0.089,3.715-0.179,7.744-0.271,12.094
			c-0.09,4.348-0.179,8.605-0.271,12.773c-0.089,4.164-0.134,7.334-0.134,9.508c0,0.543,0,1.135,0,1.764
			c0,0.639-0.093,1.223-0.271,1.768c1.087,4.17,1.856,8.924,2.311,14.268c0.451,5.34-0.773,9.916-3.669,13.721
			c-2.538,2.535-5.072,3.848-7.606,3.941c-2.542,0.088-5.348-0.863-8.425-2.855c-2.359-2.717-3.897-6.295-4.619-10.732
			c-0.729-4.439-1-9.01-0.815-13.721c0.179-4.711,0.544-9.377,1.087-13.994c0.543-4.623,0.814-8.561,0.814-11.82
			c0.179-10.871,0.45-22.688,0.815-35.461c0.357-12.773,0.357-25.633,0-38.586c-0.365-12.949-1.317-25.633-2.854-38.043
			c-1.541-12.408-4.034-23.683-7.472-33.831c-0.543-1.809-1.452-3.439-2.72-4.892c-1.266-1.446-2.352-2.894-3.26-4.347
			c-4.168-0.181-7.655,1.317-10.458,4.483c-2.813,3.17-5.12,6.976-6.932,11.413c-1.813,4.443-3.261,9.013-4.347,13.725
			c-1.087,4.712-1.995,8.515-2.717,11.41c-2.716,11.957-4.395,24.185-5.027,36.686c-0.636,12.498-1.046,24.908-1.225,37.227v30.705
			v0.814c0.365,1.451,0.544,2.627,0.544,3.535c0.364,1.629,0.227,3.305-0.406,5.025c-0.636,1.727-1.496,3.309-2.583,4.754
			c-3.082,3.082-6.249,4.396-9.508,3.941c-3.259-0.449-6.162-2.311-8.697-5.57c-2.359-7.246-3.628-14.813-3.804-22.688
			c-0.186-7.883-0.729-15.629-1.63-23.234c-1.454-13.043-3.222-25.952-5.299-38.724c-2.084-12.769-5.121-25.405-9.106-37.906
			c-0.725-2.354-1.492-4.799-2.307-7.335c-0.815-2.538-1.813-4.935-2.988-7.204c-1.183-2.261-2.583-4.347-4.213-6.249
			c-1.634-1.901-3.535-3.487-5.708-4.753c-3.442,2.175-6.341,5.163-8.694,8.966c-2.355,3.803-4.394,7.973-6.117,12.5
			c-1.72,4.529-3.17,9.061-4.347,13.587c-1.179,4.531-2.131,8.518-2.85,11.953c-1.455,6.345-2.494,12.094-3.126,17.256
			c-0.636,5.166-1.131,10.327-1.492,15.488c-0.369,5.165-0.544,10.464-0.544,15.898c0,5.433,0,11.413,0,17.933
			c0,4.891,0.224,9.832,0.678,14.811c0.451,4.986,0.856,10.01,1.225,15.084c0.36,5.07,0.495,10.098,0.405,15.078
			c-0.093,4.986-0.774,9.918-2.036,14.811c-1.998,3.627-4.532,5.842-7.61,6.658c-3.084,0.814-6.434-0.049-10.052-2.584
			c-1.633-1.266-3.174-3.666-4.622-7.199c-1.451-3.535-2.854-7.291-4.212-11.277c-1.359-3.984-2.583-7.789-3.669-11.412
			c-1.087-3.621-1.902-6.248-2.445-7.879c-4.529-11.959-9.195-23.779-13.992-35.462c-4.804-11.685-9.556-23.413-14.268-35.189
			c-1.455-3.808-2.947-7.564-4.484-11.278c-1.541-3.712-3.305-7.379-5.299-11.007L847.799,259.247z M1005.945,360.061
			c0,0.182-0.045,0.137-0.134-0.137c-0.093-0.271-0.138-0.588-0.138-0.951C1005.673,359.518,1005.766,359.879,1005.945,360.061z"/>
		<path fill="#00B2E7" d="M1108.115,245.389c2.898,1.453,4.981,3.26,6.251,5.433c1.266,2.173,1.72,4.347,1.361,6.523
			c-0.367,2.173-1.496,4.167-3.4,5.976c-1.902,1.814-4.395,2.9-7.473,3.26c-2.537,1.271-4.982,1.542-7.335,0.815
			c-2.355-0.719-4.212-2.036-5.571-3.937c-1.358-1.902-2.039-4.165-2.039-6.793c0-2.625,0.997-5.205,2.988-7.746
			c1.995-2.173,4.216-3.667,6.661-4.482c2.445-0.815,5.114-0.588,8.013,0.679C1107.932,245.117,1108.115,245.208,1108.115,245.389z
			 M1091.812,323.103c0-3.261,0.815-5.929,2.445-8.015c1.63-2.082,3.576-3.348,5.845-3.805c2.264-0.451,4.619-0.135,7.064,0.951
			c2.445,1.088,4.391,3.083,5.842,5.979c1.266,4.346,2.174,9.466,2.72,15.354c0.544,5.887,0.854,11.957,0.949,18.203
			c0.09,6.254,0.042,12.367-0.133,18.344c-0.186,5.98-0.272,11.324-0.272,16.031c-0.729,3.629-2.27,6.297-4.622,8.016
			c-2.358,1.725-4.804,2.449-7.338,2.178c-2.538-0.271-4.801-1.453-6.792-3.535c-1.995-2.08-2.991-5.027-2.991-8.832
			c0-3.803,0.092-8.465,0.271-13.994c0.182-5.523,0.228-11.139,0.138-16.848c-0.093-5.703-0.365-11.23-0.815-16.576
			C1093.669,331.213,1092.897,326.73,1091.812,323.103z"/>
		<path fill="#00B2E7" d="M1145.614,333.156c-3.26-0.904-5.664-2.396-7.204-4.48c-1.537-2.084-2.308-4.257-2.308-6.523
			c0-2.262,0.815-4.436,2.445-6.521c1.634-2.082,4.079-3.484,7.338-4.211c11.957-0.181,23.731-0.633,35.327-1.357
			c11.589-0.725,23.274-1.18,35.051-1.359c3.804,0.363,6.613,1.679,8.425,3.938c1.809,2.27,2.717,4.666,2.717,7.201
			c0,2.541-0.95,4.893-2.851,7.066c-1.906,2.174-4.76,3.354-8.562,3.531c-11.778,0.186-23.504,0.641-35.189,1.359
			C1169.119,332.523,1157.389,332.98,1145.614,333.156z"/>
		<path fill="#00B2E7" d="M1244.792,259.247c-1.63-1.45-2.757-3.351-3.393-5.708c-0.634-2.349-0.496-4.979,0.405-7.878
			c0-0.181,0.049-0.316,0.139-0.408c0.092-0.087,0.133-0.225,0.133-0.408c2.716-3.26,5.664-5.027,8.835-5.299
			c3.167-0.272,6.289,1.131,9.374,4.213c2.896,3.083,5.612,7.063,8.152,11.957c2.535,4.89,4.891,10.051,7.064,15.484
			c2.173,5.438,4.164,10.784,5.976,16.034c1.81,5.255,3.439,9.784,4.894,13.588c1.806,4.711,3.71,9.331,5.706,13.857
			c1.99,4.529,3.892,9.148,5.704,13.859c0-5.437,0.227-11.728,0.681-18.886c0.451-7.154,1.131-14.581,2.036-22.283
			c0.907-7.696,2.084-15.489,3.536-23.367c1.446-7.88,3.26-15.354,5.432-22.417c2.174-7.067,4.708-13.452,7.611-19.157
			c2.895-5.708,6.251-10.279,10.054-13.722c2.353-1.993,4.89-3.712,7.607-5.167c2.72-1.444,5.34-2.988,7.881-4.619
			c2.175-0.543,3.938-0.718,5.297-0.543c1.357,0.184,3.031,0.728,5.031,1.63c4.707,2.717,8.558,5.165,11.546,7.338
			c2.989,2.175,5.479,4.621,7.474,7.337c1.991,2.717,3.758,6.024,5.299,9.919c1.534,3.896,3.305,8.923,5.297,15.082
			c0.726,2.173,1.402,4.301,2.038,6.384c0.637,2.086,1.222,4.211,1.765,6.384c1.269-6.7,2.81-13.267,4.625-19.701
			c1.805-6.427,4.116-12.403,6.926-17.934c2.809-5.522,6.113-10.416,9.917-14.672c3.804-4.254,8.24-7.561,13.315-9.918
			c1.086-0.542,2.582-0.858,4.484-0.951c1.901-0.091,3.803-0.091,5.705,0c1.901,0.093,3.575,0.227,5.023,0.409
			c1.451,0.179,2.267,0.27,2.448,0.27c4.708,0.364,8.738,2.717,12.091,7.063s6.119,9.377,8.291,15.083
			c2.174,5.705,3.804,11.458,4.89,17.256c1.088,5.797,1.81,10.233,2.174,13.314c1.81,16.847,3.082,33.469,3.804,49.862
			c0.722,16.396,0.993,33.108,0.815,50.134c0,1.27-0.046,3.758-0.139,7.473c-0.09,3.715-0.179,7.744-0.271,12.094
			c-0.09,4.348-0.181,8.605-0.272,12.773c-0.09,4.164-0.134,7.334-0.134,9.508c0,0.543,0,1.135,0,1.764
			c0,0.639-0.093,1.223-0.272,1.768c1.088,4.17,1.857,8.924,2.312,14.268c0.45,5.34-0.773,9.916-3.669,13.721
			c-2.538,2.535-5.076,3.848-7.607,3.941c-2.542,0.088-5.347-0.863-8.424-2.855c-2.36-2.717-3.897-6.295-4.619-10.732
			c-0.729-4.439-1.001-9.01-0.814-13.721c0.178-4.711,0.543-9.377,1.086-13.994c0.543-4.623,0.814-8.561,0.814-11.82
			c0.18-10.871,0.451-22.688,0.815-35.461c0.357-12.773,0.357-25.633,0-38.586c-0.364-12.949-1.316-25.633-2.854-38.043
			c-1.54-12.408-4.033-23.683-7.472-33.831c-0.544-1.809-1.451-3.439-2.721-4.892c-1.266-1.446-2.352-2.894-3.26-4.347
			c-4.168-0.181-7.654,1.317-10.457,4.483c-2.813,3.17-5.12,6.976-6.934,11.413c-1.811,4.443-3.26,9.013-4.346,13.725
			c-1.088,4.712-1.998,8.515-2.717,11.41c-2.717,11.957-4.395,24.185-5.027,36.686c-0.636,12.498-1.045,24.908-1.221,37.227v30.705
			v0.814c0.361,1.451,0.539,2.627,0.539,3.535c0.365,1.629,0.229,3.305-0.408,5.025c-0.629,1.727-1.489,3.309-2.575,4.754
			c-3.082,3.082-6.248,4.396-9.513,3.941c-3.259-0.449-6.158-2.311-8.695-5.57c-2.355-7.246-3.625-14.813-3.805-22.688
			c-0.182-7.883-0.725-15.629-1.629-23.234c-1.451-13.043-3.22-25.952-5.297-38.724c-2.086-12.769-5.121-25.405-9.106-37.906
			c-0.726-2.354-1.492-4.799-2.308-7.335c-0.814-2.538-1.815-4.935-2.988-7.204c-1.183-2.261-2.583-4.347-4.212-6.249
			c-1.634-1.901-3.535-3.487-5.709-4.753c-3.441,2.175-6.345,5.163-8.693,8.966c-2.358,3.803-4.395,7.973-6.117,12.5
			c-1.72,4.529-3.17,9.061-4.347,13.587c-1.179,4.531-2.132,8.518-2.851,11.953c-1.455,6.345-2.493,12.094-3.127,17.256
			c-0.639,5.166-1.134,10.327-1.494,15.488c-0.365,5.165-0.545,10.464-0.545,15.898c0,5.433,0,11.413,0,17.933
			c0,4.891,0.229,9.832,0.683,14.811c0.446,4.986,0.856,10.01,1.224,15.084c0.357,5.07,0.494,10.098,0.405,15.078
			c-0.096,4.986-0.772,9.918-2.038,14.811c-1.996,3.627-4.529,5.842-7.61,6.658c-3.081,0.814-6.431-0.049-10.052-2.584
			c-1.635-1.266-3.172-3.666-4.622-7.199c-1.448-3.535-2.851-7.291-4.209-11.277c-1.358-3.984-2.583-7.789-3.669-11.412
			c-1.086-3.621-1.902-6.248-2.445-7.879c-4.528-11.959-9.195-23.779-13.995-35.462c-4.802-11.685-9.557-23.413-14.266-35.189
			c-1.454-3.808-2.946-7.564-4.484-11.278c-1.54-3.712-3.308-7.379-5.299-11.007L1244.792,259.247z M1402.938,360.061
			c0,0.182-0.045,0.137-0.137-0.137c-0.087-0.271-0.131-0.588-0.131-0.951C1402.671,359.518,1402.76,359.879,1402.938,360.061z"/>
		<path fill="#00B2E7" d="M1534.187,292.127c3.621-0.724,6.699-0.363,9.236,1.088c2.538,1.447,4.213,3.394,5.027,5.839
			c0.815,2.444,0.634,4.985-0.542,7.609c-1.181,2.629-3.491,4.667-6.931,6.115c-5.257,1.996-9.875,4.799-13.857,8.422
			c-3.988,3.627-7.383,7.747-10.188,12.365c-2.813,4.617-5.073,9.555-6.796,14.807c-1.722,5.258-3.032,10.6-3.94,16.035
			c1.813-1.447,3.624-2.717,5.437-3.803c1.809-1.088,3.621-2.355,5.438-3.807c2.172-1.631,4.252-3.572,6.247-5.844
			c1.992-2.262,4.031-4.57,6.115-6.928c2.079-2.352,4.253-4.525,6.52-6.523c2.263-1.992,4.663-3.436,7.2-4.348
			c6.699-1.631,11.592,0.641,14.674,6.793c2.174,6.523,3.758,13.18,4.76,19.975c0.989,6.793,1.853,13.582,2.579,20.379
			c0.722,6.791,1.536,13.586,2.444,20.381c0.904,6.793,2.352,13.539,4.346,20.24c0.545,3.805-0.044,6.838-1.764,9.105
			c-1.725,2.266-3.803,3.711-6.248,4.348c-2.444,0.633-4.938,0.271-7.476-1.086s-4.443-3.852-5.705-7.473
			c-3.085-10.328-4.985-20.697-5.705-31.111c-0.726-10.416-1.998-20.791-3.806-31.113l-5.162,5.16
			c-3.628,3.443-6.84,6.387-9.649,8.832c-2.806,2.445-5.66,4.443-8.556,5.977c-2.901,1.543-6.073,2.582-9.515,3.125
			c-3.442,0.543-7.429,0.727-11.953,0.543c-2.718-0.904-4.757-1.99-6.114-3.26c-1.359-1.266-2.493-3.26-3.397-5.975
			c-2.174-7.246-2.718-14.539-1.631-21.879c1.086-7.334,3.26-14.441,6.52-21.33c3.264-6.882,7.294-13.404,12.096-19.563
			c4.796-6.157,9.734-11.593,14.81-16.303c2.174-1.991,4.663-3.397,7.469-4.212C1528.978,293.893,1531.646,293.033,1534.187,292.127
			z"/>
		<path fill="#00B2E7" d="M1577.117,302.996c0-3.805,1.042-6.703,3.125-8.694c2.081-1.995,4.392-3.082,6.933-3.262
			c2.531-0.18,4.977,0.589,7.335,2.31c2.354,1.723,3.804,4.484,4.348,8.287c0.178,4.168,0.587,8.152,1.221,11.957
			c0.635,3.804,1.401,7.703,2.313,11.686c2.535-4.893,5.162-8.516,7.878-10.871c1.63-1.629,3.078-2.896,4.347-3.803
			c1.265-0.908,2.537-1.723,3.807-2.445c1.263-0.723,2.621-1.313,4.075-1.767c1.448-0.45,3.26-0.953,5.434-1.497
			c3.624-0.722,6.702-0.36,9.24,1.088c2.534,1.453,4.212,3.396,5.026,5.842c0.814,2.447,0.633,4.985-0.542,7.608
			c-1.184,2.628-3.491,4.665-6.929,6.116c-3.808,1.086-7.25,3.307-10.327,6.656c-3.085,3.354-5.704,7.336-7.883,11.959
			c-2.173,4.617-4.029,9.689-5.57,15.215c-1.541,5.529-2.675,10.826-3.394,15.896c0,3.621-0.097,7.199-0.272,10.73
			c-0.182,3.531-0.368,7.025-0.542,10.465c-0.544,3.26-1.813,5.748-3.804,7.471c-1.998,1.719-4.123,2.672-6.391,2.852
			c-2.262,0.182-4.48-0.451-6.652-1.902c-2.174-1.447-3.804-3.713-4.89-6.791c-0.73-3.26-0.953-7.107-0.682-11.551
			c0.271-4.432,0.855-9.1,1.768-13.992c0-4.164-0.097-8.287-0.271-12.361c-0.186-4.08-0.544-8.195-1.091-12.367
			c-1.269-7.609-2.761-15.078-4.484-22.416C1578.52,318.076,1577.479,310.605,1577.117,302.996z"/>
		<path fill="#00B2E7" d="M1657.82,306.256c-3.26-0.905-5.66-2.399-7.2-4.484c-1.537-2.078-2.31-4.251-2.31-6.52
			c0-2.264,0.814-4.438,2.448-6.524c1.629-2.076,4.074-3.483,7.334-4.21c5.612-0.36,10.955-0.903,16.032-1.63
			c0.364-8.151,0.635-16.167,0.815-24.046c0.178-7.882,0.363-15.896,0.543-24.05c0-1.809-0.18-4.932-0.543-9.374
			c-0.365-4.438-0.451-9.191-0.271-14.266c0.178-5.07,0.947-9.785,2.307-14.131c1.362-4.347,3.847-7.244,7.477-8.693
			c2.349-0.906,4.661-1.131,6.929-0.679c2.262,0.452,4.301,1.403,6.114,2.852c3.438,3.082,4.889,6.386,4.346,9.918
			c-0.543,3.531-2.083,6.114-4.618,7.745c-0.364,9.781-0.502,19.477-0.405,29.074c0.085,9.606-0.048,19.204-0.409,28.803
			l-0.544,13.045c1.991-0.36,3.846-0.588,5.572-0.68c1.715-0.089,3.575-0.224,5.566-0.409c3.803,0.365,6.613,1.678,8.424,3.941
			c1.81,2.268,2.717,4.667,2.717,7.2c0,2.538-0.948,4.895-2.85,7.067c-1.902,2.174-4.76,3.353-8.563,3.533
			c-1.992,0.181-3.896,0.316-5.705,0.404c-1.813,0.098-3.715,0.32-5.705,0.682c-0.907,23.549-1.813,46.873-2.721,69.969
			c-0.908,23.098-1.451,46.42-1.629,69.973c-0.726,3.619-2.268,6.293-4.619,8.016c-2.354,1.719-4.8,2.445-7.334,2.172
			c-2.542-0.271-4.801-1.449-6.796-3.531c-1.998-2.082-2.987-5.023-2.987-8.83c0.36-22.465,0.947-44.791,1.764-66.984
			c0.814-22.188,1.674-44.516,2.582-66.98C1668.505,305.351,1663.258,305.895,1657.82,306.256z"/>
		<path fill="#00B2E7" d="M1739.88,245.389c2.896,1.453,4.984,3.26,6.253,5.433c1.263,2.173,1.72,4.347,1.358,6.523
			c-0.368,2.173-1.496,4.167-3.401,5.976c-1.901,1.814-4.392,2.9-7.47,3.26c-2.54,1.271-4.984,1.542-7.334,0.815
			c-2.359-0.719-4.216-2.036-5.574-3.937c-1.358-1.902-2.036-4.165-2.036-6.793c0-2.625,0.994-5.205,2.989-7.746
			c1.99-2.173,4.212-3.667,6.657-4.482c2.445-0.815,5.116-0.588,8.015,0.679C1739.698,245.117,1739.88,245.208,1739.88,245.389z
			 M1723.577,323.103c0-3.261,0.816-5.929,2.445-8.015c1.631-2.082,3.577-3.348,5.842-3.805c2.264-0.451,4.619-0.135,7.064,0.951
			c2.443,1.088,4.392,3.083,5.842,5.979c1.266,4.346,2.178,9.466,2.721,15.354c0.543,5.887,0.855,11.957,0.948,18.203
			c0.091,6.254,0.042,12.367-0.133,18.344c-0.183,5.98-0.272,11.324-0.272,16.031c-0.726,3.629-2.27,6.297-4.622,8.016
			c-2.355,1.725-4.801,2.449-7.335,2.178c-2.541-0.271-4.804-1.453-6.791-3.535c-1.998-2.08-2.992-5.027-2.992-8.832
			c0-3.803,0.091-8.465,0.271-13.994c0.18-5.523,0.228-11.139,0.135-16.848c-0.09-5.703-0.361-11.23-0.814-16.576
			C1725.435,331.213,1724.665,326.73,1723.577,323.103z"/>
		<path fill="#00B2E7" d="M1764.063,301.093c0-3.259,0.815-5.93,2.444-8.015c1.631-2.08,3.576-3.353,5.846-3.807
			c2.265-0.447,4.619-0.135,7.064,0.954c2.444,1.087,4.391,3.079,5.843,5.979c1.447,5.617,2.448,12.229,2.99,19.835l7.336-12.772
			c0.543-0.904,1.444-1.991,2.717-3.26c1.266-1.266,2.579-2.534,3.937-3.803c1.358-1.27,3.13-2.806,5.304-4.62
			c1.991-1.267,3.62-2.037,4.891-2.313c1.261-0.271,2.986-0.223,5.16,0.139c1.995,0.724,4.487,1.587,7.476,2.582
			c2.989,0.996,5.203,2.493,6.655,4.484c2.715,3.624,4.889,8.651,6.52,15.079c1.633,6.434,2.857,13.631,3.672,21.602
			c0.815,7.975,1.263,16.352,1.359,25.137c0.088,8.791,0.088,17.301,0,25.541c-0.097,8.246-0.272,15.939-0.544,23.098
			s-0.409,12.996-0.409,17.525v1.09l-0.544,2.174c-0.182,0.541-0.635,1.357-1.357,2.447c-0.365,0.719-0.775,1.396-1.221,2.035
			c-0.457,0.633-0.956,1.129-1.5,1.496l-2.174,1.088c-0.722,0.357-1.176,0.543-1.357,0.543c-0.361,0.18-0.904,0.271-1.63,0.271
			c-1.63,0.357-3.171,0.271-4.619-0.271l-1.358-0.543l-1.901-1.359c-0.364-0.186-0.592-0.367-0.677-0.543
			c-0.097-0.186-0.234-0.367-0.408-0.543c-0.37-0.369-0.545-0.639-0.545-0.814c-0.726-0.545-1.183-1.273-1.358-2.178
			c-0.182-0.182-0.271-0.453-0.271-0.814l-0.819-2.717v-2.176c0-8.516,0.179-17.525,0.542-27.033
			c0.366-9.516,0.548-19.068,0.548-28.67s-0.454-19.023-1.362-28.262c-0.906-9.238-2.623-17.838-5.161-25.813
			c-3.26,3.084-6.43,7.789-9.508,14.131c-3.084,6.344-5.802,13.18-8.153,20.514c-2.358,7.336-4.261,14.541-5.704,21.604
			c-1.456,7.068-2.174,12.953-2.174,17.662l-0.544,2.174c-1.087,2.539-2.449,4.529-4.078,5.979
			c-0.543,0.365-1.132,0.682-1.768,0.953s-1.22,0.588-1.768,0.949c-0.543,0.182-1.357,0.271-2.445,0.271h-0.814
			c-0.543,0-1.54-0.18-2.988-0.543c-0.182,0-0.636-0.18-1.359-0.545c-1.629-0.902-3.032-2.264-4.211-4.074
			c-1.181-1.809-1.768-4.168-1.768-7.066v-2.172c0-6.16,0.093-12.861,0.271-20.107c0.182-7.246,0.227-14.539,0.138-21.873
			c-0.094-7.34-0.409-14.492-0.953-21.472C1766.779,313.277,1765.692,306.893,1764.063,301.093z"/>
		<path fill="#00B2E7" d="M1877.646,365.225c-0.183,0-0.271,0.092-0.271,0.27c0.904,2.539,1.99,4.801,3.26,6.793
			c1.263,1.994,2.619,3.713,4.075,5.164c1.99,1.813,3.94,2.99,5.843,3.531c1.9,0.545,3.807,0.775,5.708,0.68
			c1.9-0.088,3.889-0.406,5.976-0.951c2.081-0.543,4.393-0.996,6.926-1.357c3.264,0.361,5.846,1.447,7.749,3.26
			c1.9,1.813,3.032,3.852,3.393,6.109c0.36,2.271-0.089,4.533-1.357,6.799c-1.269,2.264-3.442,4.035-6.521,5.297
			c-3.624,0.543-7.294,1.27-11.004,2.174c-3.718,0.904-7.473,1.176-11.278,0.814c-5.978-0.545-11.276-2.627-15.898-6.248
			c-4.618-3.625-8.556-8.02-11.815-13.182c-3.26-5.16-5.753-10.684-7.477-16.574c-1.723-5.883-2.577-11.365-2.577-16.441
			c0-6.52,0.084-12.041,0.271-16.574c0.178-4.525,0.767-8.6,1.764-12.229c0.998-3.621,2.582-7.241,4.76-10.866
			c2.174-3.624,5.247-7.882,9.237-12.772c0.903-1.266,1.63-2.263,2.172-2.988c0.544-0.725,1.537-1.358,2.988-1.901
			c3.082-1.087,6.114-2.267,9.106-3.534c2.988-1.268,6.018-1.994,9.1-2.177c4.893-0.177,9.281,0.455,13.181,1.905
			c3.896,1.449,7.106,3.579,9.645,6.384c2.535,2.813,4.165,6.207,4.891,10.193c0.726,3.984,0.272,8.33-1.358,13.039
			c-1.629,4.529-3.896,8.969-6.792,13.314c-2.898,4.348-6.161,8.52-9.782,12.5c-3.625,3.99-7.519,7.656-11.686,11.004
			C1885.701,360.018,1881.624,362.867,1877.646,365.225z M1897.752,310.877c-4.347-0.543-8.016-0.045-11.005,1.492
			c-2.988,1.544-5.48,3.764-7.472,6.658c-1.998,2.898-3.49,6.297-4.487,10.192c-0.995,3.896-1.492,8.013-1.492,12.362l4.35-3.535
			c3.979-3.436,8.056-7.514,12.225-12.225C1894.037,321.111,1896.665,316.133,1897.752,310.877z"/>
		<path fill="#00B2E7" d="M1941.497,319.842c-3.26-0.904-5.66-2.396-7.201-4.482c-1.534-2.082-2.308-4.256-2.308-6.521
			c0-2.264,0.815-4.438,2.445-6.523c1.63-2.076,4.074-3.484,7.338-4.209c5.25,0,10.229-0.041,14.942-0.138
			c4.71-0.087,9.601-0.406,14.673-0.949c2.537-0.361,4.892-0.681,7.065-0.952c2.174-0.273,4.527-0.317,7.064-0.135
			c3.077,0,5.888,0.361,8.428,1.086c2.531,0.726,4.892,2.084,7.063,4.074c3.075,2.538,4.753,5.481,5.024,8.831
			c0.271,3.354-0.319,6.93-1.765,10.733c-1.451,3.806-3.531,7.609-6.247,11.413c-2.718,3.803-5.53,7.473-8.426,11.008
			c-2.902,3.531-5.618,6.654-8.153,9.371c-2.538,2.719-4.347,4.893-5.433,6.523c-1.27,1.633-2.992,4.033-5.164,7.199
			c-2.174,3.172-3.715,5.936-4.619,8.291c5.07-1.27,10.006-2.672,14.811-4.217c4.797-1.531,9.645-2.758,14.538-3.664
			c3.262,0.363,5.84,1.451,7.742,3.26c1.9,1.813,3.032,3.852,3.396,6.115c0.362,2.266-0.091,4.531-1.356,6.791
			c-1.272,2.27-3.446,4.033-6.52,5.299c-3.446,0.543-7.341,1.588-11.69,3.125c-4.346,1.541-8.737,2.947-13.177,4.213
			c-4.438,1.27-8.831,2.084-13.177,2.445c-4.35,0.365-8.153-0.361-11.414-2.172c-1.813-1.453-3.125-2.719-3.941-3.805
			c-0.814-1.09-1.588-2.625-2.307-4.623c-0.367-7.063,0.677-13.676,3.123-19.834c2.443-6.158,5.57-12.045,9.373-17.664
			c3.807-5.613,8.02-11.047,12.638-16.303c4.619-5.252,8.92-10.504,12.905-15.761c-6.522,0-13.091,0.366-19.696,1.087
			C1954.855,319.48,1948.194,319.842,1941.497,319.842z"/>
		<path fill="#00B2E7" d="M2045.297,398.102c-3.626-0.361-6.432-1.447-8.429-3.26c-1.984-1.809-3.618-4.168-4.884-7.066
			c-1.998-1.631-3.264-3.572-3.808-5.842c-0.543-2.26-0.404-4.438,0.41-6.521c0.818-2.08,2.263-3.758,4.354-5.027
			c2.068-1.266,4.748-1.719,8.008-1.359c4.172,0.545,7.241,2.629,9.237,6.252c0.368,0.545,0.632,1.043,0.822,1.494
			c0.178,0.453,0.354,0.951,0.542,1.496c2.353,1.629,3.894,3.529,4.615,5.703c0.718,2.174,0.77,4.26,0.138,6.25
			c-0.634,1.996-1.909,3.762-3.804,5.301C2050.592,397.063,2048.19,397.922,2045.297,398.102z"/>
		<path fill="#00B2E7" d="M2149.643,320.249c-1.269,2.269-2.987,3.851-5.163,4.758c-2.172,0.907-4.53,0.995-7.062,0.272
			c-2.542-0.723-4.805-2.354-6.796-4.893c-0.364-1.088-0.725-2.127-1.087-3.125c-0.363-0.992-0.726-1.944-1.086-2.854
			c-1.629,1.27-3.171,2.541-4.618,3.805c-1.27,1.086-2.493,2.309-3.671,3.666c-1.181,1.359-2.224,2.492-3.128,3.4
			c-6.342,7.973-11.319,15.852-14.941,23.637c-3.628,7.793-5.344,16.85-5.162,27.178c1.088,0.904,2.036,1.902,2.851,2.988
			c0.815,1.086,1.947,1.813,3.397,2.174c5.613,0.541,11.094,0.453,16.441-0.273c5.337-0.725,10.5-1.9,15.486-3.531
			c4.986-1.629,9.824-3.623,14.538-5.98c4.711-2.352,9.418-4.889,14.133-7.605c3.261-0.725,6.066-0.545,8.422,0.543
			c2.353,1.086,4.029,2.627,5.031,4.617c0.989,1.996,1.262,4.307,0.814,6.932c-0.457,2.629-1.862,5.025-4.214,7.199
			c-4.716,2.717-10.507,5.705-17.387,8.969c-6.89,3.26-13.998,6.025-21.338,8.287c-7.337,2.26-14.539,3.756-21.604,4.48
			c-7.063,0.727-13.138-0.178-18.202-2.717c-3.628-1.629-7.203-3.803-10.735-6.518c-3.532-2.719-6.211-5.885-8.017-9.514
			c-2.173-3.982-3.084-8.83-2.716-14.539c0.357-5.705,1.534-11.727,3.532-18.07c1.99-6.334,4.618-12.723,7.878-19.154
			c3.267-6.43,6.799-12.365,10.602-17.799c3.804-5.434,7.74-10.145,11.822-14.131c4.074-3.981,7.924-6.702,11.541-8.149
			c2.541-1.086,5.12-1.813,7.747-2.175c2.62-0.363,5.207-0.815,7.747-1.358c2.893,0.363,5.118,1.043,6.658,2.038
			c1.537,0.997,3.025,2.764,4.48,5.299l4.891,13.857C2151.272,315.224,2150.912,317.988,2149.643,320.249z"/>
		<path fill="#00B2E7" d="M2231.43,303.539c1.991,1.086,3.622,2.355,4.891,3.807c1.813,0.543,3.714,1.629,5.712,3.26
			c5.068,5.977,9.236,11.138,12.496,15.488c3.261,4.346,5.575,8.693,6.934,13.041c1.357,4.35,1.719,9.016,1.085,13.994
			c-0.639,4.986-2.405,11.191-5.302,18.615c-1.451,3.807-4.395,7.609-8.831,11.412c-4.442,3.805-9.377,6.975-14.811,9.512
			c-5.434,2.539-10.962,3.941-16.571,4.213c-5.619,0.271-10.238-1.223-13.861-4.482c-1.992-1.811-3.938-3.537-5.84-5.168
			c-1.901-1.629-3.493-3.619-4.76-5.975c-1.812-3.443-2.757-7.924-2.854-13.453c-0.089-5.523,0.368-11.23,1.366-17.119
			c0.99-5.887,2.395-11.549,4.209-16.984c1.806-5.433,3.707-9.871,5.705-13.313c1.27-2.174,3.08-4.484,5.433-6.931
			c2.356-2.445,4.937-4.526,7.745-6.248c2.805-1.72,5.704-2.991,8.693-3.807C2225.863,302.586,2228.714,302.635,2231.43,303.539z
			 M2238.767,340.496c-1.449-2.721-3.35-5.209-5.706-7.473s-4.528-4.574-6.52-6.93l-5.161,2.717
			c-0.727,0.908-1.586,2.582-2.587,5.027c-0.997,2.445-2.032,5.254-3.119,8.424c-1.087,3.172-2.043,6.48-2.857,9.916
			c-0.815,3.445-1.358,6.705-1.63,9.787c-0.271,3.08-0.131,5.703,0.412,7.877s1.717,3.531,3.532,4.074
			c4.347,1.27,8.376,0.908,12.092-1.086c3.71-1.99,6.741-4.846,9.098-8.559c2.356-3.711,3.803-7.744,4.347-12.094
			C2241.21,347.83,2240.577,343.938,2238.767,340.496z"/>
		<path fill="#00B2E7" d="M2270.832,307.617c0-3.807,1.042-6.702,3.126-8.697c2.079-1.991,4.384-3.078,6.926-3.26
			c2.538-0.183,4.982,0.59,7.341,2.307c2.351,1.726,3.804,4.483,4.348,8.288c0.175,5.617,0.542,11.142,1.087,16.574
			c0.543,5.437,1.086,10.869,1.629,16.305c2.35-5.797,4.752-11.59,7.198-17.392c2.451-5.794,4.846-11.499,7.2-17.118
			c1.447-1.809,2.761-3.078,3.945-3.803c1.172-0.723,2.759-1.359,4.748-1.902c2.725-0.361,4.986-0.041,6.798,0.949
			c1.81,1,3.261,2.311,4.348,3.941c1.086,1.63,1.946,3.535,2.578,5.708c0.634,2.174,1.132,4.347,1.5,6.521
			c0.718,4.17,1.443,9.061,2.173,14.672c0.719,5.619,1.534,11.324,2.446,17.119c1.086-4.346,2.487-9.055,4.212-14.131
			c1.719-5.066,3.803-9.686,6.248-13.857c2.444-4.164,5.296-7.559,8.563-10.188c3.26-2.624,7.063-3.759,11.41-3.397
			c3.439,0.366,6.021,1.361,7.747,2.992c1.716,1.629,3.48,3.895,5.292,6.791c1.088,1.452,2.129,3.53,3.13,6.248
			c0.989,2.72,1.675,4.621,2.031,5.709c1.088,3.627,1.998,7.334,2.724,11.139c0.723,3.805,1.537,7.523,2.445,11.141
			c1.266,5.258,2.535,10.691,3.805,16.307c1.264,5.615,2.806,10.959,4.617,16.031h-0.271c0.543,1.629,0.634,3.713,0.271,6.248v0.543
			c-2.537,4.35-5.705,6.662-9.508,6.934c-3.811,0.271-7.252-1.588-10.332-5.574c-1.992-4.348-3.485-8.918-4.477-13.721
			c-1-4.797-1.953-9.602-2.855-14.402c-0.908-4.797-1.903-9.602-2.989-14.4c-1.088-4.801-2.541-9.377-4.348-13.725
			c-1.812,4.531-3.356,9.377-4.618,14.539c-1.27,5.16-2.585,10.371-3.943,15.625c-1.359,5.254-2.848,10.283-4.484,15.08
			c-1.63,4.805-3.621,9.012-5.978,12.639c-3.084,3.078-6.249,4.393-9.509,3.939s-6.16-2.311-8.695-5.574
			c-3.985-5.795-6.754-12.719-8.287-20.787c-1.54-8.057-2.857-16.346-3.944-24.863c-3.618,9.236-7.108,18.436-10.454,27.578
			c-3.356,9.154-6.117,18.439-8.291,27.855v1.629h-0.543c0,0.361-0.051,0.682-0.139,0.953s-0.134,0.588-0.134,0.949
			c-1.63,2.898-3.628,4.844-5.976,5.846c-2.356,0.99-4.67,1.221-6.933,0.678c-2.267-0.543-4.168-1.859-5.706-3.941
			c-1.541-2.084-2.311-4.756-2.311-8.016c0-15.395-0.729-30.57-2.173-45.516C2272.365,338.184,2271.375,323.012,2270.832,307.617z"
			/>
	</g>
</g>
<path fill="none" stroke="#FFFFFF" d="M796.608,146.706v298.408c0,17.818-15.312,32.264-34.196,32.264H108.455
	c-18.89,0-34.196-14.445-34.196-32.264V146.706C74.259,146.706,397.406,6.622,796.608,146.706z"/>
<path fill="#00B3E8" stroke="#00B3E8" d="M796.608,146.706v298.408c0,17.818-15.312,32.264-34.196,32.264H108.455
	c-18.89,0-34.196-14.445-34.196-32.264V146.706C74.259,146.706,397.406,6.622,796.608,146.706z"/>
<path fill="#FFFFFF" stroke="#09B2E8" stroke-miterlimit="10" d="M435.163,477.377h327.249c18.884,0,34.196-14.445,34.196-32.264
	V146.706C664.983,100.516,541.63,84.787,435.397,84.45L435.163,477.377z"/>
<g>
	<path fill="#FFFFFF" d="M105.315,165.101V445.08h89.052V141.591C194.367,141.591,152.652,149.987,105.315,165.101z"/>
	<path fill="#FFFFFF" d="M310.491,125.445V445.08h93.799V114.046C404.29,114.046,361.545,113.724,310.491,125.445z"/>
	<polygon fill="#FFFFFF" points="404.29,114.046 252.429,445.08 105.315,165.101 194.367,141.591 251.6,266.976 310.491,125.445 	
		"/>
</g>
<g>
	<path fill="#00B3E8" d="M768.223,165.101V445.08h-89.052V141.591C679.171,141.591,720.886,149.987,768.223,165.101z"/>
	<path fill="#00B3E8" d="M563.047,125.445V445.08h-93.799V114.046C469.248,114.046,511.993,113.724,563.047,125.445z"/>
	<polygon fill="#00B3E8" points="469.248,114.046 621.109,445.08 768.223,165.101 679.171,141.591 621.938,266.976 563.047,125.445 
			"/>
</g>
<rect x="383.63" y="246.21" fill="#E6007E" width="103.601" height="66.706"/>
<g opacity="0.81">
	<path fill="#FFFFFF" d="M418.427,272.143c-0.12,0-0.179-0.06-0.179-0.18v-11.111h-0.379l-6.503,11.25
		c-0.027,0.027-0.073,0.04-0.14,0.04h-0.858c-0.027,0-0.053-0.006-0.08-0.02l-6.443-11.271h-0.359v11.111
		c0,0.12-0.06,0.18-0.18,0.18h-1.296c-0.12,0-0.18-0.06-0.18-0.18v-12.248c0-0.133,0.06-0.2,0.18-0.2h2.872
		c0.04,0,0.073,0.007,0.1,0.02l5.845,10.313l6.024-10.293c0.026-0.026,0.073-0.04,0.14-0.04h2.713c0.093,0,0.14,0.067,0.14,0.2
		v12.248c0,0.12-0.047,0.18-0.14,0.18H418.427z"/>
	<path fill="#FFFFFF" d="M421.2,258.897c-0.093,0-0.14-0.066-0.14-0.2v-1.516c0-0.12,0.046-0.179,0.14-0.179h0.877
		c0.08,0,0.12,0.06,0.12,0.179v1.516c0,0.133-0.04,0.2-0.12,0.2H421.2z M421.2,272.143c-0.093,0-0.14-0.06-0.14-0.18v-10.532
		c0-0.12,0.046-0.18,0.14-0.18h0.877c0.08,0,0.12,0.06,0.12,0.18v10.532c0,0.12-0.04,0.18-0.12,0.18H421.2z"/>
	<path fill="#FFFFFF" d="M433.388,268.213v0.08c0,2.567-1.13,3.85-3.391,3.85h-3.451c-2.167,0-3.251-1.343-3.251-4.029V265.5
		c0-0.665,0.073-1.247,0.22-1.746c0.146-0.499,0.379-0.934,0.698-1.306c0.678-0.745,1.489-1.117,2.434-1.117h3.351
		c1.037,0,1.848,0.299,2.434,0.897c0.638,0.678,0.958,1.656,0.958,2.933c0,0.133-0.053,0.199-0.16,0.199h-1.117
		c-0.106,0-0.16-0.066-0.16-0.199v-0.02c0-1.45-0.651-2.174-1.955-2.174h-3.351c-0.652,0-1.127,0.213-1.426,0.638
		c-0.299,0.426-0.449,1.057-0.449,1.895v2.613c0,0.718,0.163,1.296,0.488,1.735s0.755,0.658,1.287,0.658h3.451
		c1.303,0,1.955-0.725,1.955-2.174v-0.04c0-0.12,0.053-0.179,0.16-0.179h1.117h0.02c0.013,0,0.026,0.007,0.04,0.02L433.388,268.213z
		"/>
	<path fill="#FFFFFF" d="M443.302,272.143c-0.106,0-0.159-0.06-0.159-0.18v-6.423c0-0.825-0.189-1.479-0.569-1.965
		c-0.379-0.485-0.868-0.728-1.466-0.728h-2.913c-0.638,0-1.14,0.239-1.506,0.718c-0.366,0.479-0.549,1.137-0.549,1.975v6.423
		c0,0.12-0.06,0.18-0.179,0.18h-1.197c-0.093,0-0.139-0.06-0.139-0.18v-14.781c0-0.12,0.046-0.179,0.139-0.179h1.217
		c0.12,0,0.179,0.06,0.179,0.179v4.708c0.2-0.266,0.412-0.439,0.638-0.519c0.226-0.08,0.579-0.12,1.058-0.12h3.251
		c1.077,0,1.921,0.359,2.533,1.077c0.306,0.386,0.542,0.841,0.708,1.367c0.166,0.525,0.25,1.141,0.25,1.845v6.423
		c0,0.12-0.053,0.18-0.16,0.18H443.302z"/>
	<path fill="#FFFFFF" d="M455.41,265.261c0.013,0.133,0.02,0.259,0.02,0.379s0,0.233,0,0.339v1.815
		c-0.04,0.905-0.1,1.639-0.18,2.204c-0.08,0.565-0.216,1.007-0.409,1.327c-0.193,0.319-0.466,0.536-0.818,0.648
		c-0.353,0.113-0.815,0.169-1.387,0.169h-4.867c-1.649,0-2.473-0.931-2.473-2.792v-0.998c0-0.611,0.056-1.12,0.169-1.526
		c0.113-0.406,0.312-0.721,0.598-0.948c0.286-0.226,0.675-0.385,1.167-0.479c0.492-0.093,1.11-0.14,1.855-0.14h4.767l-0.02-0.259
		c-0.04-0.678-0.193-1.177-0.459-1.496c-0.014,0-0.033-0.013-0.06-0.04c-0.306-0.306-0.698-0.459-1.177-0.459h-3.251
		c-1.157,0-1.735,0.512-1.735,1.536c0,0.133-0.053,0.2-0.16,0.2h-1.157c-0.12,0-0.18-0.066-0.18-0.2v-0.239
		c0-0.998,0.319-1.762,0.958-2.294c0.266-0.226,0.582-0.392,0.947-0.499s0.741-0.16,1.127-0.16h3.57
		c0.998,0.013,1.775,0.306,2.334,0.877c0.559,0.572,0.838,1.496,0.838,2.773L455.41,265.261z M453.864,267.645
		c0.006-0.272,0.01-0.469,0.01-0.588h-5.685c-0.479,0-0.798,0.066-0.958,0.199c-0.346,0.146-0.519,0.519-0.519,1.117v0.798
		c0,0.891,0.492,1.336,1.476,1.336h4.089c1.024,0,1.536-0.585,1.536-1.755C453.841,268.286,453.857,267.917,453.864,267.645z"/>
	<path fill="#FFFFFF" d="M466.531,270.238c-0.14,0.406-0.362,0.761-0.668,1.067c-0.519,0.559-1.19,0.838-2.015,0.838h-3.75
		c-2.301,0-3.451-1.356-3.451-4.069v-2.513c0-1.264,0.319-2.294,0.958-3.092c0.691-0.758,1.509-1.137,2.454-1.137h3.212
		c0.492,0,0.934,0.08,1.326,0.239s0.748,0.386,1.067,0.678c0.359,0.346,0.628,0.768,0.808,1.267c0.18,0.499,0.27,1.041,0.27,1.626
		v1.516c0,0.133-0.06,0.199-0.18,0.199h-8.438v1.018c0,1.755,0.645,2.633,1.935,2.633h3.63c0.585,0,1.014-0.166,1.287-0.499
		s0.409-0.898,0.409-1.696v-0.857c0.173-0.027,0.312-0.043,0.419-0.05c0.106-0.006,0.199-0.01,0.279-0.01h0.319
		c0.226,0,0.339,0.067,0.339,0.2v1.256C466.74,269.37,466.67,269.832,466.531,270.238z M458.651,263.605
		c-0.326,0.426-0.502,0.958-0.528,1.596h7.181c-0.04-0.678-0.236-1.22-0.588-1.625s-0.788-0.608-1.307-0.608h-3.53
		C459.386,262.967,458.977,263.18,458.651,263.605z"/>
	<path fill="#FFFFFF" d="M467.997,272.143c-0.12,0-0.18-0.06-0.18-0.18v-14.781c0-0.12,0.06-0.179,0.18-0.179h0.838
		c0.093,0,0.14,0.06,0.14,0.179v14.781c0,0.12-0.047,0.18-0.14,0.18H467.997z"/>
	<path fill="#FFFFFF" d="M410.259,296.08c-0.12,0-0.179-0.06-0.179-0.18v-11.111h-0.379l-6.503,11.25
		c-0.027,0.027-0.073,0.04-0.14,0.04H402.2c-0.027,0-0.053-0.006-0.08-0.02l-6.443-11.271h-0.359V295.9c0,0.12-0.06,0.18-0.18,0.18
		h-1.296c-0.12,0-0.18-0.06-0.18-0.18v-12.248c0-0.133,0.06-0.2,0.18-0.2h2.872c0.04,0,0.073,0.007,0.1,0.02l5.845,10.313
		l6.024-10.293c0.026-0.026,0.073-0.04,0.14-0.04h2.713c0.093,0,0.14,0.067,0.14,0.2V295.9c0,0.12-0.047,0.18-0.14,0.18H410.259z"/>
	<path fill="#FFFFFF" d="M423.185,289.198c0.013,0.133,0.02,0.259,0.02,0.379s0,0.233,0,0.339v1.815
		c-0.04,0.905-0.1,1.639-0.18,2.204c-0.08,0.565-0.216,1.007-0.409,1.327c-0.193,0.319-0.466,0.536-0.818,0.648
		c-0.353,0.113-0.815,0.169-1.387,0.169h-4.867c-1.649,0-2.473-0.931-2.473-2.792v-0.998c0-0.611,0.056-1.12,0.169-1.526
		c0.113-0.406,0.312-0.721,0.598-0.948c0.286-0.226,0.675-0.385,1.167-0.479c0.492-0.093,1.11-0.14,1.855-0.14h4.767l-0.02-0.259
		c-0.04-0.678-0.193-1.177-0.459-1.496c-0.014,0-0.033-0.013-0.06-0.04c-0.306-0.306-0.698-0.459-1.177-0.459h-3.251
		c-1.157,0-1.735,0.512-1.735,1.536c0,0.133-0.053,0.2-0.16,0.2h-1.157c-0.12,0-0.18-0.066-0.18-0.2v-0.239
		c0-0.998,0.319-1.762,0.958-2.294c0.266-0.226,0.582-0.392,0.947-0.499s0.741-0.16,1.127-0.16h3.57
		c0.998,0.013,1.775,0.306,2.334,0.877c0.559,0.572,0.838,1.496,0.838,2.773L423.185,289.198z M421.639,291.582
		c0.006-0.272,0.01-0.469,0.01-0.588h-5.685c-0.479,0-0.798,0.066-0.958,0.199c-0.346,0.146-0.519,0.519-0.519,1.117v0.798
		c0,0.891,0.492,1.336,1.476,1.336h4.089c1.024,0,1.536-0.585,1.536-1.755C421.616,292.223,421.632,291.854,421.639,291.582z"/>
	<path fill="#FFFFFF" d="M433.159,289.736c-0.106,0-0.16-0.066-0.16-0.2c0-1.755-0.711-2.633-2.134-2.633h-2.753
		c-0.745,0-1.29,0.219-1.636,0.658s-0.519,1.097-0.519,1.975v6.363c0,0.12-0.067,0.18-0.199,0.18h-1.117
		c-0.093,0-0.14-0.06-0.14-0.18v-6.383c0-0.625,0.046-1.133,0.14-1.526c0.093-0.392,0.172-0.661,0.239-0.808
		c0-0.013,0.006-0.027,0.02-0.04c0-0.026,0.006-0.046,0.02-0.06c0.266-0.585,0.618-1.034,1.057-1.346s0.871-0.469,1.296-0.469h3.69
		c1.064,0,1.908,0.353,2.533,1.057c0.639,0.745,0.958,1.815,0.958,3.211c0,0.133-0.06,0.2-0.179,0.2H433.159z"/>
	<path fill="#FFFFFF" d="M443.631,293.028c0.013,0,0.02,0.02,0.02,0.06c0,0.492-0.077,0.928-0.229,1.307s-0.402,0.722-0.748,1.027
		c-0.253,0.226-0.539,0.393-0.858,0.499c-0.319,0.106-0.665,0.16-1.037,0.16h-2.214c-0.625,0-1.137-0.143-1.536-0.429
		s-0.712-0.708-0.938-1.267c-0.373-0.825-0.559-2.048-0.559-3.67c0-0.465,0.02-1.117,0.06-1.955c0.027-0.386,0.043-0.705,0.05-0.958
		c0.006-0.252,0.01-0.472,0.01-0.658h-0.778c-0.107,0-0.16-0.066-0.16-0.2v-1.536c0-0.12,0.053-0.18,0.16-0.18h0.778v-1.835
		c0-0.106,0.06-0.16,0.18-0.16h1.137c0.106,0,0.16,0.053,0.16,0.16v1.835h5.545c0.133,0,0.2,0.06,0.2,0.18v1.536
		c0,0.133-0.067,0.2-0.2,0.2h-5.545v5.047c0,0.758,0.113,1.32,0.339,1.686c0.226,0.366,0.591,0.548,1.097,0.548h2.155
		c0.345,0,0.651-0.093,0.917-0.279c0.319-0.212,0.479-0.565,0.479-1.057c0-0.12,0.053-0.18,0.16-0.18h1.217
		c0.04,0,0.066,0.007,0.08,0.02L443.631,293.028z"/>
	<path fill="#FFFFFF" d="M444.169,282.834c-0.093,0-0.14-0.066-0.14-0.2v-1.516c0-0.12,0.046-0.179,0.14-0.179h0.877
		c0.08,0,0.12,0.06,0.12,0.179v1.516c0,0.133-0.04,0.2-0.12,0.2H444.169z M444.169,296.08c-0.093,0-0.14-0.06-0.14-0.18v-10.532
		c0-0.12,0.046-0.18,0.14-0.18h0.877c0.08,0,0.12,0.06,0.12,0.18V295.9c0,0.12-0.04,0.18-0.12,0.18H444.169z"/>
	<path fill="#FFFFFF" d="M455.021,296.08c-0.107,0-0.16-0.06-0.16-0.18v-6.283c0-0.838-0.193-1.493-0.579-1.965
		s-0.877-0.708-1.476-0.708h-2.932c-0.585,0-1.077,0.24-1.476,0.718c-0.399,0.479-0.599,1.13-0.599,1.955v6.283
		c0,0.12-0.067,0.18-0.199,0.18h-1.117c-0.107,0-0.16-0.06-0.16-0.18v-6.084c0-1.436,0.313-2.55,0.938-3.341
		c0.625-0.791,1.496-1.187,2.613-1.187h2.932c1.104,0,1.965,0.389,2.583,1.167c0.618,0.778,0.927,1.905,0.927,3.381v6.064
		c0,0.12-0.06,0.18-0.18,0.18H455.021z"/>
	<path fill="#FFFFFF" d="M467.438,294.175c-0.14,0.406-0.362,0.761-0.668,1.067c-0.519,0.559-1.19,0.838-2.015,0.838h-3.75
		c-2.301,0-3.451-1.356-3.451-4.069v-2.513c0-1.264,0.319-2.294,0.958-3.092c0.691-0.758,1.509-1.137,2.454-1.137h3.212
		c0.492,0,0.934,0.08,1.326,0.239s0.748,0.386,1.067,0.678c0.359,0.346,0.628,0.768,0.808,1.267c0.18,0.499,0.27,1.041,0.27,1.626
		v1.516c0,0.133-0.06,0.199-0.18,0.199h-8.438v1.018c0,1.755,0.645,2.633,1.935,2.633h3.63c0.585,0,1.014-0.166,1.287-0.499
		s0.409-0.898,0.409-1.696v-0.857c0.173-0.027,0.312-0.043,0.419-0.05c0.106-0.006,0.199-0.01,0.279-0.01h0.319
		c0.226,0,0.339,0.067,0.339,0.2v1.256C467.647,293.307,467.578,293.769,467.438,294.175z M459.559,287.542
		c-0.326,0.426-0.502,0.958-0.528,1.596h7.181c-0.04-0.678-0.236-1.22-0.588-1.625s-0.788-0.608-1.307-0.608h-3.53
		C460.293,286.904,459.884,287.117,459.559,287.542z"/>
	<path fill="#FFFFFF" d="M468.924,296.08c-0.133,0-0.2-0.06-0.2-0.18v-1.256l6.264-7.7h-6.024c-0.12,0-0.179-0.053-0.179-0.159
		v-1.317c0-0.12,0.06-0.179,0.179-0.179h8.119c0.12,0,0.18,0.06,0.18,0.179v1.257l-6.244,7.72h6.064c0.12,0,0.18,0.053,0.18,0.16
		v1.296c0,0.12-0.06,0.18-0.18,0.18H468.924z"/>
</g>
</svg>
