<?xml version="1.0" encoding="utf-8"?>
<!-- Generator: Adobe Illustrator 16.0.0, SVG Export Plug-In . SVG Version: 6.00 Build 0)  -->
<!DOCTYPE svg PUBLIC "-//W3C//DTD SVG 1.1//EN" "http://www.w3.org/Graphics/SVG/1.1/DTD/svg11.dtd">
<svg version="1.1" id="Capa_1" xmlns="http://www.w3.org/2000/svg" xmlns:xlink="http://www.w3.org/1999/xlink" x="0px" y="0px"
	 width="2015.476px" height="1710.699px" viewBox="1731.587 190.117 2015.476 1710.699"
	 enable-background="new 1731.587 190.117 2015.476 1710.699" xml:space="preserve">
<g>
	<path fill="#7E8C8D" d="M3747.062,1045.466c0,472.4-451.18,855.351-1007.738,855.351c-556.56,0-1007.737-382.949-1007.737-855.351
		c0-472.394,451.178-855.349,1007.737-855.349C3295.883,190.117,3747.062,573.072,3747.062,1045.466z"/>
	<path fill="#95A5A7" d="M3663.691,1007.042c0,422.291-391.897,764.619-875.328,764.619c-483.429,0-875.323-342.328-875.323-764.619
		s391.896-764.625,875.323-764.625C3271.794,242.417,3663.691,584.751,3663.691,1007.042z"/>
	<path fill="#A7AEAF" d="M3672.757,961.087c0,361.81-339.112,655.104-757.431,655.104c-418.314,0-757.425-293.296-757.425-655.104
		c0-361.806,339.11-655.109,757.425-655.109C3333.645,305.978,3672.757,599.281,3672.757,961.087z"/>
	<path fill="#7E8C8D" d="M3467.064,550.607c-26.818,57.934-121.596,71.084-211.703,29.377
		c-90.103-41.707-141.408-122.479-114.59-180.41c26.814-57.935,121.598-71.09,211.698-29.385
		C3442.578,411.898,3493.879,492.675,3467.064,550.607z"/>
	<path fill="#95A5A7" d="M3432.324,555.062c-20.713,44.75-98.837,52.633-174.486,17.612c-75.659-35.02-120.198-99.682-99.49-144.428
		c20.715-44.744,98.833-52.627,174.487-17.609C3408.489,445.656,3453.037,510.32,3432.324,555.062z"/>
	<path fill="#7E8C8D" d="M3176.202,353.326c-13.099,43.938-74.28,64.479-136.658,45.887
		c-62.384-18.586-102.339-69.268-89.25-113.203c13.093-43.932,74.271-64.48,136.657-45.893
		C3149.336,258.71,3189.29,309.394,3176.202,353.326z"/>
	<path fill="#95A5A7" d="M3153.751,360.601c-10.124,33.937-60.774,48.789-113.157,33.179
		c-52.375-15.607-86.641-55.765-76.531-89.699c10.121-33.932,60.774-48.787,113.144-33.18
		C3129.585,286.507,3163.86,326.669,3153.751,360.601z"/>
	<path fill="#7E8C8D" d="M2642.285,392.914c2.356,23.312-25.129,45.178-61.387,48.836c-36.26,3.662-67.557-12.268-69.911-35.578
		c-2.354-23.312,25.128-45.184,61.392-48.842C2608.633,353.671,2639.939,369.601,2642.285,392.914z"/>
	<path fill="#95A5A7" d="M2632.146,400.812c1.819,18.006-21.385,35.1-51.832,38.168c-30.444,3.075-56.595-9.031-58.418-27.037
		c-1.814-18.006,21.389-35.093,51.832-38.166C2604.169,370.701,2630.328,382.808,2632.146,400.812z"/>
	<path fill="#7E8C8D" d="M2513.539,384.941c4.071,16.327-11.417,34.25-34.597,40.03c-23.189,5.783-45.275-2.76-49.347-19.086
		c-4.076-16.321,11.405-34.246,34.591-40.032C2487.371,360.07,2509.469,368.617,2513.539,384.941z"/>
	<path fill="#95A5A7" d="M2507.803,391.433c3.146,12.611-10.082,26.771-29.545,31.625c-19.467,4.857-37.791-1.428-40.938-14.032
		c-3.143-12.611,10.086-26.771,29.539-31.627C2486.328,372.541,2504.66,378.826,2507.803,391.433z"/>
	<path fill="#7E8C8D" d="M2623.45,286.976c3.218,26.217-29.688,51.836-73.509,57.227c-43.82,5.393-81.961-11.484-85.185-37.697
		c-3.229-26.211,29.678-51.832,73.504-57.223C2582.087,243.89,2620.223,260.769,2623.45,286.976z"/>
	<path fill="#95A5A7" d="M2611.301,296.242c2.485,20.248-25.315,40.326-62.115,44.854c-36.795,4.531-68.644-8.213-71.133-28.459
		c-2.486-20.246,25.318-40.326,62.109-44.85C2576.957,263.259,2608.814,275.996,2611.301,296.242z"/>
	<path fill="#7E8C8D" d="M3495.488,738.263c-8.025,15.063-31.254,14.42-51.881-1.434c-20.627-15.851-30.838-40.898-22.807-55.961
		c8.027-15.062,31.255-14.414,51.881,1.432C3493.305,698.162,3503.523,723.21,3495.488,738.263z"/>
	<path fill="#95A5A7" d="M3486.987,737.927c-6.201,11.633-25.269,10.275-42.589-3.043c-17.318-13.307-26.326-33.516-20.129-45.149
		c6.205-11.634,25.268-10.267,42.584,3.041C3484.168,706.08,3493.186,726.302,3486.987,737.927z"/>
	<path fill="#7E8C8D" d="M3387.27,652.337c-4.34,11.748-19.654,14.729-34.213,6.641c-14.561-8.086-22.842-24.157-18.496-35.909
		c4.338-11.75,19.649-14.728,34.209-6.646C3383.327,624.509,3391.613,640.593,3387.27,652.337z"/>
	<path fill="#95A5A7" d="M3381.656,653.354c-3.357,9.077-15.978,10.934-28.199,4.147c-12.227-6.791-19.41-19.65-16.062-28.725
		c3.354-9.066,15.98-10.927,28.198-4.146C3377.814,631.419,3385.008,644.277,3381.656,653.354z"/>
	<path fill="#7E8C8D" d="M3121.836,453.111c-4.339,11.748-19.654,14.725-34.214,6.641c-14.56-8.088-22.839-24.158-18.495-35.908
		c4.339-11.752,19.648-14.731,34.208-6.647C3117.895,425.281,3126.18,441.365,3121.836,453.111z"/>
	<path fill="#95A5A7" d="M3116.223,454.126c-3.355,9.076-15.977,10.932-28.197,4.146c-12.228-6.791-19.411-19.65-16.063-28.724
		c3.354-9.067,15.981-10.926,28.199-4.145C3112.382,432.193,3119.574,445.05,3116.223,454.126z"/>
	<path fill="#7E8C8D" d="M3527.668,665.796c-8.727,17.217-36.316,16.111-61.628-2.469c-25.31-18.582-38.758-47.603-30.037-64.818
		c8.722-17.223,36.308-16.119,61.622,2.467C3522.939,619.558,3536.388,648.58,3527.668,665.796z"/>
	<path fill="#95A5A7" d="M3517.559,665.275c-6.738,13.293-29.422,11.428-50.686-4.177c-21.249-15.6-33.021-39.028-26.282-52.323
		s29.431-11.433,50.679,4.17C3512.529,628.546,3524.301,651.976,3517.559,665.275z"/>
	<path fill="#7E8C8D" d="M2717.587,487.208c-0.229-26.947,34.69-43.285,78.002-36.49c43.307,6.797,78.606,34.15,78.841,61.095
		c0.24,26.952-34.674,43.288-77.99,36.489C2753.125,541.505,2717.824,514.152,2717.587,487.208z"/>
	<path fill="#95A5A7" d="M2730.458,486.949c-0.176-20.803,29.146-33.049,65.527-27.351c36.356,5.707,65.991,27.205,66.168,48.017
		c0.179,20.809-29.155,33.061-65.515,27.352C2760.264,529.265,2730.633,507.767,2730.458,486.949z"/>
	<path fill="#7E8C8D" d="M2836.648,591.097c-3.691-17.057,16.301-32.016,44.658-33.407c28.355-1.396,54.344,11.305,58.038,28.356
		c3.702,17.062-16.287,32.016-44.648,33.41C2866.335,620.849,2840.35,608.152,2836.648,591.097z"/>
	<path fill="#95A5A7" d="M2844.777,589.24c-2.851-13.17,14.13-24.797,37.951-25.974c23.807-1.168,45.429,8.563,48.279,21.734
		c2.854,13.172-14.134,24.803-37.941,25.971C2869.25,612.148,2847.63,602.417,2844.777,589.24z"/>
	<path fill="#7E8C8D" d="M2890.441,523.156c-2.117-9.781,9.35-18.359,25.611-19.16c16.264-0.799,31.166,6.484,33.285,16.264
		c2.123,9.785-9.341,18.361-25.605,19.16C2907.467,540.219,2892.564,532.938,2890.441,523.156z"/>
	<path fill="#95A5A7" d="M2895.104,522.091c-1.634-7.553,8.104-14.221,21.767-14.895c13.652-0.672,26.053,4.907,27.688,12.463
		c1.638,7.555-8.105,14.225-21.761,14.895C2909.139,535.229,2896.74,529.648,2895.104,522.091z"/>
	<path fill="#7E8C8D" d="M2653.379,514.351c-0.301-11.592,14.602-18.883,33.283-16.284c18.684,2.6,34.074,14.102,34.379,25.69
		c0.305,11.594-14.592,18.885-33.279,16.285C2669.076,537.443,2653.686,525.939,2653.379,514.351z"/>
	<path fill="#95A5A7" d="M2658.914,514.144c-0.23-8.95,12.291-14.438,27.986-12.26c15.684,2.183,28.595,11.207,28.828,20.158
		c0.233,8.953-12.295,14.443-27.98,12.262C2672.056,532.123,2659.146,523.097,2658.914,514.144z"/>
	<path fill="#7E8C8D" d="M2305.456,499.154c31.676,55.428-12.522,140.291-98.731,189.561
		c-86.205,49.264-181.758,44.275-213.434-11.15c-31.68-55.424,12.52-140.297,98.723-189.562
		C2178.223,438.734,2273.78,443.73,2305.456,499.154z"/>
	<path fill="#95A5A7" d="M2288.957,530.05c24.469,42.81-14.377,111.049-86.755,152.41c-72.383,41.369-150.892,40.197-175.358-2.604
		c-24.463-42.812,14.383-111.048,86.756-152.412C2185.98,486.076,2264.494,487.242,2288.957,530.05z"/>
	<path fill="#7E8C8D" d="M2434.452,516.511c8.975,17.088-7.913,38.935-37.72,48.795c-29.813,9.861-61.259,4.006-70.232-13.078
		c-8.984-17.09,7.896-38.932,37.719-48.795C2394.031,493.572,2425.477,499.429,2434.452,516.511z"/>
	<path fill="#95A5A7" d="M2428.168,524.449c6.93,13.194-7.729,30.598-32.771,38.889c-25.027,8.277-50.942,4.293-57.871-8.902
		c-6.932-13.194,7.733-30.608,32.763-38.887C2395.318,507.263,2421.238,511.248,2428.168,524.449z"/>
</g>
</svg>
