<?xml version="1.0" encoding="utf-8"?>
<!-- Generator: Adobe Illustrator 16.0.0, SVG Export Plug-In . SVG Version: 6.00 Build 0)  -->
<!DOCTYPE svg PUBLIC "-//W3C//DTD SVG 1.1//EN" "http://www.w3.org/Graphics/SVG/1.1/DTD/svg11.dtd">
<svg version="1.1" id="Capa_1" xmlns="http://www.w3.org/2000/svg" xmlns:xlink="http://www.w3.org/1999/xlink" x="0px" y="0px"
	 width="1388.98px" height="1955.91px" viewBox="0 0 1388.98 1955.91" enable-background="new 0 0 1388.98 1955.91"
	 xml:space="preserve">
<g>
	<ellipse fill="#009EB9" cx="666.941" cy="784.439" rx="202.222" ry="177.779"/>
	<path fill="#15B5E3" d="M855.608,758.377c0,79.223-78.068,190.299-174.367,190.299S506.876,837.6,506.876,758.377
		c0-79.222,78.066-143.444,174.365-143.444S855.608,679.156,855.608,758.377z"/>
	<g>
		<path fill="#51B36D" d="M526.124,787.38c-22.5,16.5-31.498,64.497-3,79.496c17.998,10.5,23.484,11.676,42.984,25.175
			c19.498,13.499,41.5,14.5,50.5,34c6,14.998,26.25,25.75,29.51,17.32c6.844-17.695-18-35.998-19.5-52.497
			c-1.5-20.999,50.488-43.825,14.49-66.324c-18-13.499-8.825,7.241-21.166-10.333c-36.575-52.081-49.334-35-68.834-20.667
			c-12-3,20.014-28.669,9.514-24.169c-12,4.499-18,16.498-32.998,17.998c3-10.499,3-17.998,3-28.498c0-3-4.5-28.498-6-25.499
			c12-29.999,29.998,13.499,50.998-2.999c-3-7.5-9-13.5-16.5-16.5c19.5-29.998,50.998,15,64.496-22.498c6-15-3-18,7.5-32.999
			c6-11.999,28.497-14.999,12-34.498c-21,4.499-14.26-14.587-29.26-2.588c-9,7.499-19.502,6.5-33,6.5
			c-12,0-26.236,32.086-33.736,32.086c-35.998-3-73.348,59.665-73.348,91.164c16.5,4.5,26.355,7.649,33.855-4.351
			c13.498,19.5-8.021,26.101,18.979,32.101L526.124,787.38z"/>
	</g>
	<g>
		<path fill="#2FAC61" d="M526.124,787.38c-22.5,16.5-31.498,64.497-3,79.496c17.998,10.5,23.484,11.676,42.984,25.175
			c19.498,13.499,41.5,14.5,50.5,34c6,14.998,26.391,25.803,29.51,17.32c3.49-9.488-40.01-33.988-41.51-50.488
			c-1.5-20.998-23.271-10.731-37.666-50.666c-10.334-28.667-22.324,27.574-34.668,10c-36.574-52.082,13.168-49.168-3.666-55.334
			l16.5-15.08c-12,4.5-2.486,4.076-17.484,5.576c3.484-15.829-11.516-16.773-11.516-27.273c0-3-5-27.722-6.5-24.723
			c12-29.998,45.014,11.498,66.014-5c-3-7.5-50.182-9.166-57.68-12.166c-11.066-8.667-33.166,34.164-19.668-3.334
			c6-14.999,25.502-12,36-27c6-11.999,37.5-3.5,21-23c-20.998,4.5,73.584-55.582,58.584-43.583c-9,7.499-19.502,6.5-33,6.5
			c-12,0-26.236,32.086-33.736,32.086c-35.998-3-73.348,59.665-73.348,91.164c16.5,4.5,26.355,7.649,33.855-4.351
			c13.498,19.5-8.021,26.101,18.979,32.101L526.124,787.38z"/>
	</g>
	<g>
		<path fill="#51B36D" d="M745.608,722.718c-15-1.5-23.907,19.438-31.407,32.937c-14.997,28.499,15,31.499,31.498,38.998
			c3,1.5,9-3,12-1.5c6,3,23.345,9.564,26.345,12.564c7.5,7.499,13.898,19.5,19.898,25.5c9,7.499,0.889,15.978,8.389,23.478
			c9,7.499,12.865,4.455,20.365,14.954c18-7.499,6-22.499,9-35.998c4.5-17.999-8.197-32.788,0.618-51.847
			c10.037-21.697,26.46-61.586-6.54-48.086c0-9-10.5-3.001-7.5-12c-20.998,0-43.168-5.125-62.666,5.375L745.608,722.718z"/>
	</g>
	<g>
		<path fill="#2FAC61" d="M819.608,751.051c-15-1.5-9.168,9.001-16.668,22.5c-15,28.499,11.418,14.007,27.918,21.507
			c3,1.5-6.25,7.993-3.25,9.493c6,3,2,24.75,5,27.75c7.5,7.499-13.75,10-7.75,16c8.998,7.499-20.027-1.106-12.529,6.394
			c9,7.499,12.867,4.455,20.367,14.954c17.998-7.499,5.998-22.499,8.998-35.998c4.5-17.999-8.197-32.788,0.619-51.847
			c10.036-21.697,26.459-61.586-6.539-48.086c0-9-10.5-3.001-7.5-12c-21,0-48.666,5.375-39.166,14.333L819.608,751.051z"/>
	</g>
	<g>
		<path fill="#51B36D" d="M708.282,702.535c-26.999,22.498,43.417,46.12,29.919-10.877c10.498-3,23.998,19.499,32.998,26.998
			c9-13.499-18-32.998,1.5-34.498c1.5,0,31.499,23.999,37.499,26.999c7.5,2.999,43.498,17.999,28.498-3c-6-7.499-18,0-23.998-7.499
			c-1.5-3-3-15-4.5-19.5c6,0,13.648-3.835,18.148-3.835c-22.154-25.021-49.404-44.521-76.647-53.161
			c-22.604-7.17-68.995,13.498-28.498,22.498c-17.997-3-41.997,22.499-17.997,26.999c26.997,4.499,14.997-29.999,28.497-34.499
			c19.498-5.999,10.5,26.999,6,32.999C730.701,684.158,708.282,702.535,708.282,702.535z"/>
	</g>
	<g>
		<path fill="#2FAC61" d="M789.608,663.801c14.5-3,13.5,33.75,19.5,36.75c7.5,2.999,44.588,28.271,29.588,7.272
			c-6-7.5-18,0-23.998-7.5c-1.5-3-3-15-4.5-19.499c6,0,13.648-3.835,18.148-3.835c-22.154-25.021-49.404-44.521-76.647-53.162
			c-22.604-7.17-29.091,9.349-29.091,9.349c21.625-8.75,21.309-1.878,27.25-1.125c5.047,0.64-8.376,13.875,5.124,9.375
			c19.499-5.999,16.626,7.375,12.126,13.375c-9,11.999,20.073,9.25,20.073,9.25"/>
	</g>
</g>
</svg>
