<?xml version="1.0" encoding="utf-8"?>
<!-- Generator: Adobe Illustrator 16.0.0, SVG Export Plug-In . SVG Version: 6.00 Build 0)  -->
<!DOCTYPE svg PUBLIC "-//W3C//DTD SVG 1.1//EN" "http://www.w3.org/Graphics/SVG/1.1/DTD/svg11.dtd">
<svg version="1.1" id="Capa_1" xmlns="http://www.w3.org/2000/svg" xmlns:xlink="http://www.w3.org/1999/xlink" x="0px" y="0px"
	 width="1359.851px" height="1192.548px" viewBox="0 361.669 1359.851 1192.548"
	 enable-background="new 0 361.669 1359.851 1192.548" xml:space="preserve">
<g>
	<ellipse fill="#009EB9" cx="679.927" cy="957.944" rx="679.924" ry="596.274"/>
	<path fill="#15B5E3" d="M1314.275,870.53c0,265.715-262.487,638.268-586.269,638.268c-323.782,0-586.262-372.553-586.262-638.268
		c0-265.711,262.48-481.115,586.262-481.115C1051.788,389.415,1314.275,604.823,1314.275,870.53z"/>
	<g>
		<path fill="#51B36D" d="M206.461,967.808c-75.651,55.342-105.905,216.323-10.087,266.632
			c60.515,35.217,78.961,39.16,144.525,84.438c65.558,45.273,139.534,48.632,169.794,114.037
			c20.175,50.303,88.26,86.365,99.22,58.091c23.011-59.351-60.521-120.737-65.563-176.076
			c-5.044-70.431,169.755-146.989,48.72-222.454c-60.521-45.274-29.673,24.29-71.166-34.657
			c-122.976-174.68-165.874-117.39-231.439-69.316c-40.347-10.061,67.292-96.156,31.988-81.062
			c-40.347,15.089-60.521,55.335-110.948,60.366c10.086-35.215,10.086-60.366,10.086-95.583c0-10.062-15.129-95.584-20.172-85.525
			c40.348-100.617,100.861,45.276,171.469-10.06c-10.087-25.155-30.261-45.279-55.478-55.34
			c65.563-100.614,171.468,50.31,216.854-75.46c20.173-50.31-10.088-60.372,25.216-110.679
			c20.174-40.244,95.814-50.307,40.348-115.707c-70.607,15.09-47.945-48.925-98.379-8.68
			c-30.26,25.151-65.571,21.801-110.956,21.801c-40.347,0-88.213,107.617-113.43,107.617
			C156.027,530.127,30.448,740.308,30.448,845.955c55.478,15.093,88.611,25.657,113.828-14.592
			c45.384,65.404-26.967,87.543,63.814,107.666L206.461,967.808z"/>
	</g>
	<g>
		<path fill="#2FAC61" d="M206.461,967.808c-75.651,55.342-105.905,216.323-10.087,266.632
			c60.515,35.217,78.961,39.16,144.525,84.438c65.558,45.273,139.534,48.632,169.794,114.037
			c20.175,50.303,88.733,86.543,99.22,58.091c11.735-31.823-134.523-113.996-139.567-169.338
			c-5.042-70.428-78.245-35.991-126.643-169.935c-34.745-96.15-75.06,92.483-116.563,33.539
			c-122.973-174.684,44.273-164.909-12.327-185.592l55.478-50.579c-40.347,15.094-8.36,13.672-58.787,18.704
			c11.715-53.091-38.718-56.259-38.718-91.476c0-10.062-16.812-92.98-21.855-82.921c40.347-100.613,151.348,38.565,221.956-16.771
			c-10.087-25.155-168.724-30.743-193.935-40.804c-37.208-29.069-111.514,114.586-66.129-11.183
			c20.174-50.307,85.745-40.249,121.042-90.558c20.174-40.246,126.085-11.74,70.608-77.144
			c-70.601,15.093,247.408-186.423,196.975-146.178c-30.26,25.151-65.571,21.801-110.956,21.801
			c-40.347,0-88.213,107.617-113.43,107.617C156.027,530.127,30.448,740.308,30.448,845.955
			c55.478,15.093,88.611,25.657,113.828-14.592c45.384,65.404-26.967,87.543,63.814,107.666L206.461,967.808z"/>
	</g>
	<g>
		<path fill="#51B36D" d="M944.426,750.929c-50.434-5.031-80.382,65.197-105.6,110.473
			c-50.424,95.586,50.434,105.649,105.905,130.801c10.087,5.031,30.26-10.062,40.348-5.032
			c20.173,10.063,78.491,32.076,88.578,42.138c25.217,25.151,46.73,65.406,66.903,85.528c30.261,25.151,2.986,53.593,28.207,78.748
			c30.259,25.15,43.253,14.941,68.472,50.157c60.521-25.151,20.173-75.464,30.26-120.739c15.13-60.369-27.561-109.973,2.076-173.898
			c33.746-72.77,88.966-206.561-21.99-161.282c0-30.187-35.304-10.065-25.217-40.249c-70.6,0-145.143-17.188-210.701,18.028
			L944.426,750.929z"/>
	</g>
	<g>
		<path fill="#2FAC61" d="M1193.235,845.959c-50.437-5.032-30.831,30.189-56.047,75.465c-50.435,95.587,38.395,46.98,93.869,72.135
			c10.086,5.029-21.016,26.808-10.928,31.839c20.173,10.063,6.723,83.012,16.811,93.074c25.218,25.152-46.232,33.541-26.059,53.665
			c30.253,25.151-67.335-3.708-42.123,21.447c30.261,25.15,43.262,14.941,68.48,50.157c60.515-25.151,20.166-75.464,30.254-120.739
			c15.13-60.369-27.562-109.973,2.078-173.898c33.744-72.77,88.962-206.561-21.986-161.282c0-30.187-35.304-10.065-25.217-40.249
			c-70.607,0-163.628,18.028-131.687,48.074L1193.235,845.959z"/>
	</g>
	<g>
		<path fill="#51B36D" d="M818.926,683.236c-90.777,75.459,145.98,154.687,100.595-36.481c35.298-10.062,80.688,65.4,110.948,90.553
			c30.262-45.277-60.521-110.678,5.043-115.708c5.045,0,105.909,80.494,126.082,90.556c25.217,10.059,146.253,60.368,95.818-10.062
			c-20.173-25.152-60.521,0-80.688-25.152c-5.042-10.062-10.087-50.311-15.131-65.403c20.175,0,45.888-12.863,61.019-12.863
			c-74.487-83.923-166.108-149.327-257.706-178.304c-76.003-24.048-231.98,45.273-95.818,75.459
			c-60.512-10.062-141.206,75.463-60.512,90.555c90.772,15.09,50.424-100.617,95.814-115.71
			c65.558-20.12,35.305,90.555,20.175,110.68C894.304,621.599,818.926,683.236,818.926,683.236z"/>
	</g>
	<g>
		<path fill="#2FAC61" d="M1092.365,553.32c48.754-10.062,45.392,113.198,65.564,123.26c25.218,10.059,149.917,94.823,99.482,24.393
			c-20.173-25.155-60.521,0-80.688-25.155c-5.042-10.062-10.087-50.311-15.131-65.4c20.175,0,45.888-12.861,61.019-12.861
			c-74.487-83.924-166.108-149.327-257.706-178.309c-76.003-24.047-97.812,31.356-97.812,31.356
			c72.708-29.349,71.645-6.299,91.621-3.773c16.97,2.148-28.163,46.537,17.229,31.443c65.561-20.12,55.9,24.736,40.772,44.86
			c-30.262,40.245,67.487,31.025,67.487,31.025"/>
	</g>
</g>
</svg>
